<?xml version="1.0" encoding="UTF-8" standalone="no"?>
<svg xmlns:xlink="http://www.w3.org/1999/xlink" height="50.0px" width="54.0px" xmlns="http://www.w3.org/2000/svg">
  <g transform="matrix(1.0, 0.0, 0.0, 1.0, 0.0, 0.0)">
    <path d="M44.25 2.75 L45.0 3.0 45.0 5.0 45.0 6.0 44.0 6.0 43.0 6.0 43.0 7.0 43.0 8.0 42.0 8.0 41.0 8.0 Q41.0 8.5 41.25 8.75 L42.0 9.0 43.0 9.0 43.0 10.0 Q43.0 10.5 43.25 10.75 L44.0 11.0 44.0 12.0 Q44.0 12.5 44.25 12.75 L45.0 13.0 45.25 13.75 46.0 14.0 47.0 14.0 47.0 15.0 47.0 16.0 47.0 17.0 46.0 17.0 Q46.0 17.5 46.25 17.75 L47.0 18.0 48.0 18.0 48.0 19.0 48.0 20.0 48.0 21.0 Q48.0 22.0 48.4 22.8 48.5 23.0 49.0 23.0 L49.0 24.0 49.0 25.0 48.0 25.0 48.0 26.0 48.0 27.0 48.25 27.75 49.0 28.0 49.0 29.0 48.0 29.0 48.0 30.0 48.0 31.0 48.0 32.0 48.25 32.75 49.0 33.0 Q49.0 34.0 49.4 34.8 L50.0 35.0 50.0 36.0 Q50.5 36.5 51.0 36.5 L51.0 36.0 52.0 36.0 53.0 36.0 Q53.0 36.5 53.25 36.75 L54.0 37.0 54.0 38.0 53.0 38.0 52.0 38.0 51.0 38.0 51.0 39.0 50.8 39.6 Q50.0 40.0 49.0 40.0 L49.0 41.0 48.0 41.0 48.0 42.0 47.0 42.0 46.75 41.25 46.0 41.0 46.0 42.0 45.85 42.55 Q43.45 43.45 42.0 45.0 L42.0 46.0 41.0 46.0 41.0 47.0 40.0 47.0 40.0 48.0 39.0 48.0 38.75 47.25 Q38.5 47.0 38.0 47.0 L38.0 48.0 37.0 48.0 37.0 49.0 36.0 49.0 34.0 49.0 34.0 50.0 33.0 50.0 32.75 49.25 Q32.5 49.0 32.0 49.0 L32.0 48.0 31.8 47.4 30.0 47.0 29.75 46.25 Q29.5 46.0 29.0 46.0 L28.0 46.0 27.0 46.0 27.0 45.0 26.75 44.25 Q26.5 44.0 26.0 44.0 L25.75 43.25 25.0 43.0 24.0 43.0 23.75 42.25 Q23.5 42.0 23.0 42.0 L22.0 42.0 21.75 41.25 21.0 41.0 20.75 40.25 Q20.5 40.0 20.0 40.0 L19.75 39.25 19.0 39.0 18.75 38.25 18.0 38.0 17.0 38.0 16.75 37.25 16.0 37.0 15.0 37.0 14.75 36.25 Q14.5 36.0 14.0 36.0 L13.0 36.0 12.75 35.25 12.0 35.0 11.75 34.25 Q11.5 34.0 11.0 34.0 L10.75 33.25 10.0 33.0 9.75 32.25 9.0 32.0 8.0 32.0 7.0 32.0 7.0 31.0 6.75 30.25 6.0 30.0 5.0 30.0 4.0 30.0 3.75 29.25 3.0 29.0 2.75 28.25 Q2.5 28.0 2.0 28.0 L1.0 28.0 0.75 27.25 0.0 27.0 0.0 26.0 0.0 25.0 0.0 23.0 1.0 23.0 2.75 21.75 3.0 21.0 5.0 21.0 6.0 21.0 Q7.0 21.0 7.8 20.6 L8.0 20.0 9.0 20.0 9.75 19.75 10.0 19.0 10.75 18.75 11.0 18.0 12.0 18.0 Q12.5 18.5 13.0 18.5 L13.0 18.0 13.0 17.0 13.0 16.0 13.75 15.75 14.0 15.0 14.75 14.75 15.0 14.0 Q16.0 13.5 17.05 13.15 L18.0 13.0 17.75 13.75 17.0 14.0 Q17.5 14.5 18.1 14.8 L19.0 15.0 19.75 14.75 20.0 14.0 20.75 13.75 21.0 13.0 20.75 12.25 Q20.5 12.0 20.0 12.0 L19.75 11.25 19.0 11.0 19.0 10.0 19.0 7.0 19.5 7.0 19.0 6.0 19.0 5.0 20.0 5.0 20.75 4.75 21.0 4.0 21.0 3.0 Q23.7 3.7 24.4 2.2 24.5 2.0 25.0 2.0 L25.75 1.75 26.0 1.0 27.0 1.0 29.0 1.0 30.0 1.0 Q30.5 1.5 31.0 1.5 L31.0 1.0 31.0 0.0 32.0 0.0 Q32.0 0.5 32.25 0.75 L33.0 1.0 33.75 0.75 34.0 0.0 35.0 0.0 36.0 0.0 36.25 0.75 37.0 1.0 Q38.0 1.0 38.8 0.6 L39.0 0.0 40.0 0.0 41.0 0.0 Q41.5 0.5 42.0 0.5 L42.0 0.0 43.0 0.0 44.0 0.0 44.0 1.0 44.0 2.0 Q44.0 2.5 44.25 2.75z" fill="#ffdea5" fill-rule="evenodd" stroke="none"/>
  </g>
</svg>
