<?xml version="1.0" encoding="UTF-8" standalone="no"?>
<svg xmlns:xlink="http://www.w3.org/1999/xlink" height="38.0px" width="43.0px" xmlns="http://www.w3.org/2000/svg">
  <g transform="matrix(1.0, 0.0, 0.0, 1.0, 0.0, 0.0)">
    <path d="M42.0 5.0 L42.0 6.0 42.0 7.0 42.0 8.0 42.0 9.0 42.0 10.0 42.0 11.0 42.0 12.0 42.0 13.0 42.0 14.0 42.0 15.0 42.0 16.0 42.0 17.0 42.0 18.0 42.0 19.0 42.0 20.0 42.0 21.0 42.0 22.0 42.0 23.0 42.0 24.0 42.0 25.0 42.0 26.0 42.0 27.0 42.0 28.0 42.0 29.0 42.0 30.0 42.25 30.75 43.0 31.0 43.0 32.0 42.0 32.0 42.0 35.0 42.0 36.0 42.0 37.0 41.0 37.0 40.75 36.25 40.0 36.0 40.0 37.0 40.0 38.0 39.0 38.0 38.8 37.4 37.0 37.0 36.0 37.0 35.75 36.25 Q35.5 36.0 35.0 36.0 L34.75 35.25 34.0 35.0 33.0 35.0 32.0 35.0 31.75 34.25 31.0 34.0 30.75 33.25 30.0 33.0 29.0 33.0 28.75 32.25 28.0 32.0 27.0 32.0 26.75 31.25 Q26.5 31.0 26.0 31.0 L25.0 31.0 24.75 30.25 24.0 30.0 23.0 30.0 22.75 29.25 22.0 29.0 21.0 29.0 20.75 28.25 Q20.5 28.0 20.0 28.0 L19.8 27.4 18.0 27.0 17.0 27.0 17.0 28.0 16.0 28.0 16.0 29.0 15.0 29.0 14.0 29.0 13.0 29.0 12.75 28.25 12.0 28.0 11.0 28.0 10.75 27.25 10.0 27.0 9.0 27.0 8.0 27.0 7.0 27.0 7.0 26.0 6.75 25.25 6.0 25.0 5.75 24.25 Q5.5 24.0 5.0 24.0 L4.0 24.0 3.0 24.0 3.0 23.0 2.75 22.25 Q2.5 22.0 2.0 22.0 L1.75 21.25 1.0 21.0 0.75 20.25 0.0 20.0 0.0 19.0 1.0 19.0 1.75 18.75 2.0 18.0 2.0 17.0 2.0 16.0 2.0 14.0 2.0 13.0 2.0 12.0 1.75 11.25 1.0 11.0 1.0 10.0 1.0 9.0 1.0 8.0 1.75 7.75 2.0 7.0 2.75 6.75 3.0 6.0 2.75 5.25 Q2.5 5.0 2.0 5.0 L2.0 4.0 2.75 3.75 3.0 3.0 4.0 3.0 4.75 2.75 5.0 2.0 5.8 0.9 6.0 0.0 7.0 0.0 8.0 0.0 9.0 0.0 Q9.5 0.5 10.0 0.5 L10.0 0.0 12.0 0.0 13.0 0.0 Q13.0 0.5 13.25 0.75 L14.0 1.0 15.0 1.0 16.0 1.0 Q16.0 1.5 16.25 1.75 L17.0 2.0 Q17.0 3.0 17.4 3.8 17.5 4.0 18.0 4.0 L18.25 4.75 19.0 5.0 20.0 5.0 21.0 5.0 22.1 5.8 23.0 6.0 Q23.0 6.5 23.25 6.75 L24.0 7.0 Q26.9 8.55 28.25 7.25 28.5 7.0 29.0 7.0 29.5 7.0 29.6 6.8 30.65 4.9 29.0 5.0 L29.0 4.0 29.0 3.0 29.75 2.75 30.0 2.0 Q31.05 1.05 33.0 1.0 L34.0 1.0 35.0 1.0 36.0 1.0 41.1 2.75 Q42.0 3.0 42.8 3.4 43.0 3.5 43.0 4.0 L42.0 4.0 42.0 5.0 z" fill="#8cadd6" fill-rule="evenodd" stroke="none"/>
  </g>
</svg>
