<?xml version="1.0" encoding="UTF-8" standalone="no"?>
<svg xmlns:xlink="http://www.w3.org/1999/xlink" height="23.0px" width="30.0px" xmlns="http://www.w3.org/2000/svg">
  <g transform="matrix(1.0, 0.0, 0.0, 1.0, 0.0, 0.0)">
    <path d="M28.25 1.75 L29.0 2.0 Q29.0 2.5 29.25 2.75 L30.0 3.0 30.0 4.0 30.0 5.0 29.0 5.0 28.0 5.0 28.0 6.0 28.0 7.0 27.0 7.0 26.0 7.0 Q26.0 7.5 26.25 7.75 L27.0 8.0 27.0 9.0 27.0 10.0 27.0 11.0 27.0 12.0 26.0 12.0 26.0 13.0 25.0 13.0 24.0 13.0 23.0 13.0 Q23.0 13.5 23.25 13.75 L24.0 14.0 24.0 15.0 23.0 15.0 23.0 16.0 23.0 17.0 22.0 17.0 21.75 16.25 21.0 16.0 20.0 16.0 19.0 16.0 19.0 17.0 18.0 17.0 18.0 18.0 17.0 18.0 16.0 18.0 16.0 19.0 15.0 19.0 15.0 20.0 14.0 20.0 13.0 20.0 12.0 20.0 12.25 20.75 13.0 21.0 13.0 22.0 13.0 23.0 12.0 23.0 11.75 22.25 Q11.5 22.0 11.0 22.0 L10.75 21.25 10.0 21.0 10.0 22.0 10.0 23.0 9.0 23.0 8.75 22.25 Q8.5 22.0 8.0 22.0 L7.75 21.25 7.0 21.0 7.0 20.0 6.75 19.25 6.0 19.0 5.0 19.0 4.0 19.0 3.75 18.25 3.0 18.0 2.0 18.0 0.0 18.0 0.0 17.0 0.0 11.0 0.75 10.75 1.0 10.0 1.75 9.75 2.0 9.0 2.0 8.0 2.5 8.0 2.0 7.0 2.0 6.0 2.0 4.0 2.5 4.0 2.0 3.0 2.0 2.0 2.75 1.75 3.0 1.0 3.75 0.75 4.0 0.0 5.0 0.0 8.0 0.0 9.0 0.0 9.25 0.75 10.0 1.0 Q10.5 1.5 11.0 1.5 L11.0 1.0 12.0 1.0 13.0 1.0 14.0 1.0 15.0 1.0 15.25 1.75 16.0 2.0 17.0 2.0 Q17.5 2.5 18.0 2.5 L18.0 2.0 19.75 0.75 20.0 0.0 21.0 0.0 22.0 0.0 23.0 0.0 Q23.0 0.5 23.25 0.75 L24.0 1.0 25.0 1.0 26.0 1.0 27.0 1.0 28.0 1.0 Q28.0 1.5 28.25 1.75 z" fill="#ffdea5" fill-rule="evenodd" stroke="none"/>
  </g>
</svg>
