<?xml version="1.0" encoding="UTF-8" standalone="no"?>
<svg xmlns:xlink="http://www.w3.org/1999/xlink" height="31.0px" width="32.0px" xmlns="http://www.w3.org/2000/svg">
  <g transform="matrix(1.0, 0.0, 0.0, 1.0, 0.0, 0.0)">
    <path d="M 25 5 L 25 6 L 24 6 L 24.25 6.75 L 25 7 Q 25 8.5 25.45 9.85 L 26 10 Q 26 10.5 26.25 10.75 L 27 11 L 27 12 L 27 13 L 26 13 Q 26 13.5 26.25 13.75 L 27 14 L 27.25 14.75 L 28 15 Q 29 15 29.8 14.6 L 30 14 L 31 14 L 31 15 Q 31 15.5 31.25 15.75 L 32 16 L 32 17 L 32 18 L 31 18 L 30 18 L 29 18 L 28 18 L 27 18 L 26 18 L 26 19 L 26 20 L 26 21 L 26 22 L 26 23 L 26 24 L 26 25 L 26 26 L 25 26 Q 25 26.5 25.25 26.75 L 26 27 L 26 28 Q 26 28.5 26.25 28.75 L 27 29 L 27 30 L 26 30 L 26 31 L 25 31 L 24 31 L 23 31 L 22.75 30.25 L 22 30 L 22 31 L 21 31 L 20 31 L 19.75 30.25 L 19 30 L 19 31 L 18 31 L 17.75 30.25 Q 17.5 30 17 30 L 16 30 L 14 30 L 13.75 29.25 L 13 29 L 13 30 L 12 30 L 8 30 L 7.75 29.25 L 7 29 L 7 30 L 6 30 L 5 30 L 4.75 29.25 L 4 29 L 3 29 L 1 29 L 0.75 28.25 L 0 28 L 0 27 L 0 26 L 0.75 25.75 L 1 25 L 1.75 24.75 L 2 24 L 2 23 L 2 20 L 2.75 19.75 L 3 19 L 4 19 L 4.75 18.75 L 5 18 L 5.5 18 L 5 17 L 5 16 L 5.75 15.75 L 6 15 L 5.8 14.1 L 5 13 L 5 12 L 5 11 L 5 10 L 4.75 9.25 L 4 9 L 4 10 Q 3.5 10 3.4 9.8 Q 3 9 3 8 L 3.75 7.75 L 4 7 L 4 6 L 3.75 5.25 L 3 5 L 2.85 4.05 L 2 2 L 2 1 L 2 0 L 3 0 Q 2.9 1.65 4.8 0.6 L 5 0 L 7 0 L 8 0 L 10 0 L 11 0 Q 11.5 0 11.75 0.25 L 12 1 L 12 2 L 12 3 L 11 3 Q 11 3.5 11.25 3.75 L 12 4 L 13 4 L 13 5 Q 13 5.5 13.25 5.75 L 14 6 Q 14.5 6.5 15 6.5 L 15 6 L 16 6 L 17 6 L 18 6 L 19 6 L 19.75 5.75 L 20 5 L 20.75 4.75 L 21 4 L 22 4 L 23 4 Q 23 4.5 23.25 4.75 L 24 5 L 25 5z" fill="#ffdea5" fill-rule="evenodd" stroke="none"/>
  </g>
</svg>
