<?xml version="1.0" encoding="UTF-8" standalone="no"?>
<svg xmlns:xlink="http://www.w3.org/1999/xlink" height="35.0px" width="18.0px" xmlns="http://www.w3.org/2000/svg">
  <g transform="matrix(1.0, 0.0, 0.0, 1.0, 0.0, 0.0)">
    <path d="M16.0 0.0 L17.0 0.0 17.0 1.0 17.0 2.0 Q17.0 2.5 17.25 2.75 L18.0 3.0 18.0 5.0 18.0 6.0 17.0 6.0 17.0 7.0 17.0 8.0 17.0 10.0 17.0 11.0 16.0 11.0 16.0 12.0 16.0 13.0 16.0 14.0 16.0 15.0 15.8 15.9 15.0 17.0 15.0 18.0 15.0 19.0 14.0 19.0 14.0 20.0 14.0 21.0 13.0 21.0 12.0 21.0 12.25 21.75 13.0 22.0 13.0 24.0 13.0 25.0 12.0 25.0 12.0 26.0 12.0 27.0 12.0 28.0 11.0 28.0 11.0 29.0 11.1 29.95 Q11.65 32.15 10.0 32.0 L10.0 33.0 9.0 33.0 9.0 34.0 8.0 34.0 7.0 34.0 7.0 35.0 6.0 35.0 5.0 35.0 4.75 34.25 4.0 34.0 3.0 34.0 2.75 33.25 Q2.5 33.0 2.0 33.0 L2.0 32.0 2.5 32.0 2.0 31.0 1.8 30.1 1.0 29.0 1.0 28.0 1.5 28.0 1.0 27.0 0.0 27.0 0.0 26.0 0.75 25.75 1.0 25.0 1.0 24.0 1.75 23.75 2.0 23.0 2.0 22.0 3.0 22.0 3.5 22.0 3.0 21.0 3.0 20.0 3.0 15.0 2.8 14.1 2.0 13.0 2.75 12.75 3.0 12.0 4.0 12.0 4.5 12.0 4.0 11.0 3.0 11.0 3.0 10.0 4.0 10.0 5.0 10.0 5.75 9.75 6.0 9.0 7.0 9.0 8.0 9.0 8.75 8.75 9.0 8.0 10.0 8.0 10.75 7.75 11.0 7.0 11.75 6.75 12.0 6.0 12.75 5.75 13.0 5.0 13.0 4.0 13.0 3.0 14.0 3.0 14.75 2.75 15.0 2.0 15.8 0.9 16.0 0.0 z" fill="#ffdea5" fill-rule="evenodd" stroke="none"/>
  </g>
</svg>
